/* XPM */
static char *_4b2cd8534b14472df7620c07c2ae637wgSakI9uOBHA2Cd5[] = {
/* columns rows colors chars-per-pixel */
"96 96 10 1 ",
"  c None",
". c black",
"X c #060605",
"o c #CE7B1B",
"O c #C5A116",
"+ c #DD8622",
"@ c #EEC938",
"# c #D4D3CC",
"$ c #ECEBE2",
"% c #F7F7F0",
/* pixels */
"                                                                                                ",
"                                                                                                ",
"                                                                                                ",
"                                                                                                ",
"                                                                                                ",
"                                                                                                ",
"                                                                                                ",
"                                                                                                ",
"                                                                                                ",
"                                                                                                ",
"                                                                                                ",
"                                                                                                ",
"                                                                                                ",
"                                                                                                ",
"                                                                                                ",
"                                                                                                ",
"                                                                                                ",
"                                                                                                ",
"                                                                                                ",
"                                                                                                ",
"                                                                                                ",
"                                                                                                ",
"                                                                                                ",
"                                                                                                ",
"                                                                                                ",
"                                                                                                ",
"                                                                                                ",
"                                                                                                ",
"                                                                                                ",
"                                                                                                ",
"                                                                                                ",
"                                                                                                ",
"                                                                                                ",
"                                                                                                ",
"                                                                                                ",
"                                                                                                ",
"                                                                                                ",
"                                                                                                ",
"                                                                                                ",
"                                                                                                ",
"                                                                                                ",
"                                                                                                ",
"                                                                                                ",
"                                                                                                ",
"                                                                                                ",
"                                                                                                ",
"                                                                                                ",
"                                                                                                ",
"                                    XXXXXXXXXXXXXXXXXX                                          ",
"                                    XXXXXXXXXXXXXXXXXX                                          ",
"                                    XXXXXXXXXXXXXXXXXX                                          ",
"                                 XXX##################...                                       ",
"                                 XXX##################...                                       ",
"                                 XXX##################...                                       ",
"                                 XXX###...######$$$......                                       ",
"                                 XXX###...######$$$......                                       ",
"                                 XXX###...######$$$......                                       ",
"                                 XXX######$$$$$$$$$$$$...                                       ",
"                                 XXX######$$$$$$$$$$$$...                                       ",
"                                 XXX######$$$$$$$$$$$$...                                       ",
"                                 XXX###$$$$$$XXXXXXXXXXXXXXXXXX                                 ",
"                                 XXX###$$$$$$XXXXXXXXXXXXXXXXXX                                 ",
"                                 XXX###$$$$$$XXXXXXXXXXXXXXXXXX                                 ",
"                                 XXX###$$$...OOO@@@@@@@@@@@@@@@XXX                              ",
"                                 XXX###$$$...OOO@@@@@@@@@@@@@@@XXX                              ",
"                                 XXX###$$$...OOO@@@@@@@@@@@@@@@XXX                              ",
"                                 XXX###$$$...OOOOOOOOOOOOOOOOOOXXX                              ",
"                                 XXX###$$$...OOOOOOOOOOOOOOOOOOXXX                              ",
"                                 XXX###$$$...OOOOOOOOOOOOOOOOOOXXX                              ",
"                              ...######$$$$$$..................                                 ",
"                              ...######$$$$$$..................                                 ",
"                              ...######$$$$$$..................                                 ",
"                              ...######$$$$$$$$$$$$$$$%%%...                                    ",
"                              ...######$$$$$$$$$$$$$$$%%%...                                    ",
"                              ...######$$$$$$$$$$$$$$$%%%...                                    ",
"                           ...######XXX$$$$$$$$$$$$$$$%%%%%%XXX                                 ",
"                           ...######XXX$$$$$$$$$$$$$$$%%%%%%XXX                                 ",
"                           ...######XXX$$$$$$$$$$$$$$$%%%%%%XXX                                 ",
"                           ...######XXX$$$$$$$$$$$$$$$$$$%%%XXX                                 ",
"                           ...######XXX$$$$$$$$$$$$$$$$$$%%%XXX                                 ",
"                           ...######XXX$$$$$$$$$$$$$$$$$$%%%XXX                                 ",
"                           .........$$$$$$$$$$$$$$$$$$$$$%%%XXX                                 ",
"                           .........$$$$$$$$$$$$$$$$$$$$$%%%XXX                                 ",
"                           .........$$$$$$$$$$$$$$$$$$$$$%%%XXX                                 ",
"                           ...######$$$%%%%%%%%%%%%%%%%%%%%%XXX                                 ",
"                           ...######$$$%%%%%%%%%%%%%%%%%%%%%XXX                                 ",
"                           ...######$$$%%%%%%%%%%%%%%%%%%%%%XXX                                 ",
"                              ...######XXXXXXXXXXXXXXXXXXXXX                                    ",
"                              ...######XXXXXXXXXXXXXXXXXXXXX                                    ",
"                              ...######XXXXXXXXXXXXXXXXXXXXX                                    ",
"                              ...oooooo...   ...++++++...                                       ",
"                              ...oooooo...   ...++++++...                                       ",
"                              ...oooooo...   ...++++++...                                       ",
"                                 ......         ......                                          ",
"                                 ......         ......                                          ",
"                                 ......         ......                                          "
};
